{
    "asset" : {
        "generator" : "Khronos glTF Blender I/O v1.5.17",
        "version" : "2.0"
    },
    "scene" : 0,
    "scenes" : [
        {
            "name" : "Scene",
            "nodes" : [
                0,
                1,
                2,
                3,
                4
            ]
        }
    ],
    "nodes" : [
        {
            "name" : "Light",
            "rotation" : [
                0.16907575726509094,
                0.7558803558349609,
                -0.27217137813568115,
                0.570947527885437
            ],
            "translation" : [
                4.076245307922363,
                5.903861999511719,
                -1.0054539442062378
            ]
        },
        {
            "name" : "Camera",
            "rotation" : [
                0.483536034822464,
                0.33687159419059753,
                -0.20870360732078552,
                0.7804827094078064
            ],
            "translation" : [
                7.018891334533691,
                6.798309326171875,
                5.715790748596191
            ]
        },
        {
            "mesh" : 0,
            "name" : "Cylinder",
            "rotation" : [
                0,
                0.9896513819694519,
                0,
                0.1434927135705948
            ],
            "translation" : [
                0,
                1.307389497756958,
                0
            ]
        },
        {
            "name" : "Empty",
            "rotation" : [
                0.5,
                0.5,
                -0.5,
                0.4999999701976776
            ],
            "translation" : [
                0,
                2.574598550796509,
                -0.031421929597854614
            ]
        },
        {
            "name" : "Empty.001",
            "rotation" : [
                0,
                -0.7071068286895752,
                0.7071068286895752,
                -3.090862321641907e-08
            ],
            "translation" : [
                -0.7608737945556641,
                3.1742095947265625,
                0
            ]
        }
    ],
    "materials" : [
        {
            "doubleSided" : true,
            "name" : "Material.001",
            "pbrMetallicRoughness" : {
                "baseColorTexture" : {
                    "index" : 0
                },
                "metallicFactor" : 0,
                "metallicRoughnessTexture" : {
                    "index" : 1
                }
            }
        }
    ],
    "meshes" : [
        {
            "name" : "Cylinder",
            "primitives" : [
                {
                    "attributes" : {
                        "POSITION" : 0,
                        "NORMAL" : 1,
                        "TEXCOORD_0" : 2
                    },
                    "indices" : 3,
                    "material" : 0
                }
            ]
        }
    ],
    "textures" : [
        {
            "sampler" : 0,
            "source" : 0
        },
        {
            "sampler" : 0,
            "source" : 1
        }
    ],
    "images" : [
        {
            "bufferView" : 4,
            "mimeType" : "image/png",
            "name" : "serum-bottle"
        },
        {
            "bufferView" : 5,
            "mimeType" : "image/png",
            "name" : "serum-bottle-roughness"
        }
    ],
    "accessors" : [
        {
            "bufferView" : 0,
            "componentType" : 5126,
            "count" : 1054,
            "max" : [
                0.554162323474884,
                2.188688278198242,
                0.5541623830795288
            ],
            "min" : [
                -0.554162323474884,
                -1.3083667755126953,
                -0.5541623830795288
            ],
            "type" : "VEC3"
        },
        {
            "bufferView" : 1,
            "componentType" : 5126,
            "count" : 1054,
            "type" : "VEC3"
        },
        {
            "bufferView" : 2,
            "componentType" : 5126,
            "count" : 1054,
            "type" : "VEC2"
        },
        {
            "bufferView" : 3,
            "componentType" : 5123,
            "count" : 5556,
            "type" : "SCALAR"
        }
    ],
    "bufferViews" : [
        {
            "buffer" : 0,
            "byteLength" : 12648,
            "byteOffset" : 0
        },
        {
            "buffer" : 0,
            "byteLength" : 12648,
            "byteOffset" : 12648
        },
        {
            "buffer" : 0,
            "byteLength" : 8432,
            "byteOffset" : 25296
        },
        {
            "buffer" : 0,
            "byteLength" : 11112,
            "byteOffset" : 33728
        },
        {
            "buffer" : 0,
            "byteLength" : 745378,
            "byteOffset" : 44840
        },
        {
            "buffer" : 0,
            "byteLength" : 396324,
            "byteOffset" : 790220
        }
    ],
    "samplers" : [
        {
            "magFilter" : 9729,
            "minFilter" : 9987
        }
    ],
    "buffers" : [
        {
            "byteLength" : 1186544,
            "uri" : "data:application/octet-stream;base64,"
        }
    ]
}
